<?xml version="1.0" standalone="no"?>
<!DOCTYPE svg PUBLIC "-//W3C//DTD SVG 20010904//EN"
 "http://www.w3.org/TR/2001/REC-SVG-20010904/DTD/svg10.dtd">
<svg version="1.0" xmlns="http://www.w3.org/2000/svg"
 width="120.000000pt" height="120.000000pt" viewBox="0 0 120.000000 120.000000"
 preserveAspectRatio="xMidYMid meet">

<g transform="translate(0.000000,120.000000) scale(0.100000,-0.100000)"
fill="#000000" stroke="none">
<path d="M570 1088 c-14 -6 -36 -11 -49 -12 -31 -2 -104 -83 -136 -150 -13
-28 -29 -80 -34 -116 -19 -115 -23 -123 -64 -132 -101 -21 -200 -113 -231
-216 l-18 -62 30 -62 c42 -89 55 -105 74 -88 8 8 13 24 10 36 -3 16 5 27 31
43 44 27 52 27 53 -5 1 -14 15 -42 32 -62 28 -36 32 -37 97 -38 58 -2 74 2
107 23 21 14 35 29 32 34 -3 5 -1 9 3 9 11 0 33 59 33 88 0 12 5 22 10 22 18
0 24 -31 12 -62 -9 -25 -9 -28 3 -18 7 6 16 29 20 51 5 31 14 45 39 59 17 10
37 24 44 30 9 8 12 7 13 -2 1 -7 2 -20 3 -28 0 -8 9 -14 19 -12 15 3 17 -4 13
-61 -3 -54 -1 -65 15 -76 23 -14 53 -1 69 29 6 11 19 20 30 20 10 0 22 4 25
10 3 5 20 7 37 3 22 -4 29 -3 24 5 -5 8 3 12 23 12 35 0 41 15 10 25 -34 11
-59 64 -59 126 0 114 -51 333 -99 427 -24 47 -110 128 -156 148 -19 8 -36 14
-37 13 -2 0 -14 -5 -28 -11z m74 -99 c26 -20 56 -68 56 -89 0 -5 -6 -10 -14
-10 -8 0 -24 -9 -37 -21 l-24 -21 25 7 c61 16 67 16 73 2 4 -10 -1 -13 -17
-10 -40 8 -73 -44 -35 -55 12 -3 12 -2 0 6 -7 5 -10 15 -7 21 9 14 36 15 36 1
0 -5 9 -10 20 -10 21 0 36 -26 47 -82 4 -23 2 -28 -14 -28 -10 0 -29 7 -41 16
-26 18 -28 12 -6 -22 9 -13 15 -27 12 -30 -3 -2 -42 -7 -87 -11 -58 -4 -81 -3
-81 6 0 6 -9 11 -19 11 -23 0 -61 45 -61 71 0 12 7 19 19 19 10 0 21 7 25 15
3 10 -1 15 -11 15 -13 0 -14 3 -5 12 10 10 17 10 33 0 11 -7 24 -10 29 -7 5 3
13 -3 19 -12 10 -17 10 -17 11 0 0 36 -32 75 -67 82 -30 5 -33 9 -33 43 0 47
22 79 63 91 49 14 62 13 91 -10z m-131 -156 c-7 -2 -19 -2 -25 0 -7 3 -2 5 12
5 14 0 19 -2 13 -5z m47 -13 c0 -5 -7 -7 -15 -4 -8 4 -15 8 -15 10 0 2 7 4 15
4 8 0 15 -4 15 -10z m200 -170 c0 -58 -67 -140 -114 -140 -13 0 -35 9 -48 20
-14 10 -27 17 -30 15 -3 -3 -14 5 -26 18 -21 23 -40 77 -26 77 15 0 44 -34 44
-52 0 -39 95 -9 146 47 36 40 54 44 54 15z m-94 -36 c-14 -13 -22 -14 -52 -4
-42 14 -40 18 17 28 48 9 59 1 35 -24z"/>
<path d="M587 733 c-5 -7 -5 -17 -2 -23 3 -6 -1 -7 -9 -4 -10 4 -16 1 -16 -9
0 -29 53 -36 85 -11 l20 16 -20 -6 c-25 -7 -42 3 -47 29 -2 14 -6 16 -11 8z"/>
<path d="M630 336 c0 -2 8 -10 18 -17 15 -13 16 -12 3 4 -13 16 -21 21 -21 13z"/>
<path d="M233 185 c0 -33 2 -45 4 -27 2 18 2 45 0 60 -2 15 -4 0 -4 -33z"/>
<path d="M529 167 c-9 -7 -30 -41 -47 -77 -33 -70 -31 -78 27 -79 23 -1 23 -1
6 25 -12 19 -14 29 -6 37 7 7 7 14 0 24 -9 10 -6 13 11 13 13 0 20 -3 17 -6
-11 -11 14 -46 28 -40 11 4 13 -2 8 -24 -7 -39 7 -39 100 -2 67 26 71 46 5 23
-22 -8 -35 -8 -44 0 -11 9 -14 8 -14 -5 0 -17 -15 -22 -24 -7 -8 12 55 51 81
51 10 0 28 7 39 15 18 14 18 14 -8 15 -15 0 -50 -9 -78 -19 -43 -16 -50 -17
-50 -4 0 9 6 13 14 10 10 -4 13 -1 9 9 -3 7 0 14 7 14 6 0 9 4 6 9 -3 5 -15 7
-26 4 -14 -4 -20 0 -20 11 0 19 -19 20 -41 3z"/>
<path d="M635 160 c-8 -13 15 -13 35 0 12 8 11 10 -7 10 -12 0 -25 -4 -28 -10z"/>
<path d="M705 20 c-16 -7 -17 -9 -3 -9 9 -1 20 4 23 9 7 11 7 11 -20 0z"/>
</g>
</svg>
